<svg xmlns="http://www.w3.org/2000/svg" width="77.039" height="84" viewBox="0 0 77.039 84">
    <defs>
        <style>
            .cls-1{fill:#eabd00}
        </style>
    </defs>
    <g id="achievement">
        <path id="Path_233" d="M179.163 80.884a1.661 1.661 0 0 0-1.584-1.151H169.7l-2.435-7.492a1.664 1.664 0 0 0-3.167 0l-2.435 7.492h-7.879a1.665 1.665 0 0 0-.979 3.013l6.374 4.631-2.435 7.493a1.665 1.665 0 0 0 2.562 1.862l6.373-4.632 6.374 4.632a1.666 1.666 0 0 0 2.563-1.862l-2.435-7.492 6.374-4.631a1.661 1.661 0 0 0 .608-1.863zm-8.894 4.842a1.662 1.662 0 0 0-.6 1.861l1.857 5.714-4.86-3.531a1.66 1.66 0 0 0-1.957 0l-4.86 3.531 1.857-5.714a1.663 1.663 0 0 0-.6-1.862l-4.86-3.531h6.008a1.661 1.661 0 0 0 1.584-1.151l1.857-5.713 1.857 5.713a1.661 1.661 0 0 0 1.584 1.15h6.008zm0 0" class="cls-1" data-name="Path 233" transform="translate(-127.163 -59.427)"/>
        <path id="Path_234" d="M76.146 12.082a4.2 4.2 0 0 0-3.336-1.631h-12.2V8.445h.536a2.677 2.677 0 0 0 2.674-2.674v-3.1A2.677 2.677 0 0 0 61.146 0H15.894a2.677 2.677 0 0 0-2.674 2.674v3.1a2.676 2.676 0 0 0 2.674 2.673h.535v2.005h-12.2a4.227 4.227 0 0 0-4.1 5.265l2.255 8.9a27.9 27.9 0 0 0 25.448 21 44.707 44.707 0 0 0 5.569 4.7 30.276 30.276 0 0 1-6.1 15.335H21.67a2.5 2.5 0 0 0-2.5 2.5V81.5a2.5 2.5 0 0 0 2.5 2.5h33.7a2.5 2.5 0 0 0 2.5-2.5V68.14a2.5 2.5 0 0 0-2.5-2.5h-5.629a30.28 30.28 0 0 1-6.1-15.335 44.707 44.707 0 0 0 5.569-4.7 27.9 27.9 0 0 0 25.448-21l2.255-8.9a4.2 4.2 0 0 0-.767-3.623zM60.611 18.7v-.743H68.6l-1.219 4.812a20.448 20.448 0 0 1-11.12 13.461 36.495 36.495 0 0 0 4.35-17.53zM20.778 36.23A20.446 20.446 0 0 1 9.663 22.769l-1.22-4.812h7.985v.743a36.495 36.495 0 0 0 4.35 17.53zm-7.346 1.307a25.251 25.251 0 0 1-8.66-13.529l-2.255-8.9a1.766 1.766 0 0 1 1.712-2.2h12.2V15.5H6.862a1.231 1.231 0 0 0-1.193 1.533l1.608 6.345a22.9 22.9 0 0 0 15.582 16.271l.422.606a40.767 40.767 0 0 0 2.023 2.61 25.232 25.232 0 0 1-11.872-5.329zm41.937 30.568a.035.035 0 0 1 .035.035V81.5a.036.036 0 0 1-.035.035H21.67a.035.035 0 0 1-.035-.035V68.14a.034.034 0 0 1 .035-.035zM46.7 65.644H30.342a32.849 32.849 0 0 0 5.365-13.912 6.994 6.994 0 0 0 5.624 0A32.857 32.857 0 0 0 46.7 65.644zm1.1-22.109l-.045.045a42.126 42.126 0 0 1-6.7 5.514 4.6 4.6 0 0 1-5.081 0 42.1 42.1 0 0 1-6.7-5.514c-.014-.016-.029-.03-.045-.045a38.843 38.843 0 0 1-3.951-4.705 34.087 34.087 0 0 1-6.4-20.13V8.445h3.217a1.23 1.23 0 1 0 0-2.461h-6.201a.213.213 0 0 1-.213-.213v-3.1a.213.213 0 0 1 .213-.213h45.252a.213.213 0 0 1 .213.213v3.1a.213.213 0 0 1-.213.212H27.834a1.23 1.23 0 1 0 0 2.461h30.315v10.254a34.085 34.085 0 0 1-6.4 20.13 38.846 38.846 0 0 1-3.949 4.707zm26.722-28.423l-2.255 8.9a25.453 25.453 0 0 1-20.531 18.853 40.214 40.214 0 0 0 2.023-2.61q.214-.3.422-.6a22.9 22.9 0 0 0 15.582-16.282l1.608-6.345a1.231 1.231 0 0 0-1.193-1.528h-9.567v-2.588h12.2a1.766 1.766 0 0 1 1.712 2.2zm0 0" class="cls-1" data-name="Path 234"/>
        <path id="Path_235" d="M151.266 436.059v3.982a1.545 1.545 0 0 0 1.544 1.543h24.318a1.545 1.545 0 0 0 1.543-1.543v-3.982a1.545 1.545 0 0 0-1.543-1.543h-2.6a1.23 1.23 0 1 0 0 2.461h1.685v2.147h-22.486v-2.147H168.8a1.23 1.23 0 0 0 0-2.461h-15.991a1.545 1.545 0 0 0-1.543 1.543zm0 0" class="cls-1" data-name="Path 235" transform="translate(-126.449 -363.228)"/>
    </g>
</svg>
