<svg xmlns="http://www.w3.org/2000/svg" width="90.752" height="85" viewBox="0 0 90.752 85">
    <defs>
        <style>
            .cls-1{fill:#eabd00}
        </style>
    </defs>
    <g id="employee_1_" data-name="employee (1)" transform="translate(0 -16.224)">
        <g id="Group_181" data-name="Group 181" transform="translate(0 16.224)">
            <path id="Path_243" d="M89.422 88.129a1.329 1.329 0 0 0-1.329 1.329v8.882a.224.224 0 0 1-.224.224h-5.051V79.143a1.329 1.329 0 1 0-2.659 0v19.422H70.4l2.642-2.906a2.126 2.126 0 0 0 .515-1.706c0-.013 0-.026-.006-.04l-2.97-17.547.546-.823.142.1a2.081 2.081 0 0 0 3.067-.767l3.022-6.057 6.9 2.673a6.617 6.617 0 0 1 3.833 6v5.761a1.329 1.329 0 0 0 2.659 0v-5.759a9.27 9.27 0 0 0-5.485-8.46l-.025-.01-11.755-4.553V62.05A9.707 9.707 0 0 0 77 56.021a4.639 4.639 0 0 0 2.469-1.087 4.578 4.578 0 0 0 .558-6.364v-3.588a12.721 12.721 0 0 0-20.994-9.674A4.57 4.57 0 0 0 58 32.542v-3.587a12.731 12.731 0 1 0-25.462 0v3.681a4.336 4.336 0 0 0-1.029 2.664 12.674 12.674 0 0 0-5.009-2.629 1.33 1.33 0 1 0-.677 2.571 10.075 10.075 0 0 1 7.5 9.74v1.988a10.79 10.79 0 0 0-.249-.045 1.531 1.531 0 0 0-.318-.9c-.34-.489-.951-1.1-2.917-3.211a2.1 2.1 0 0 0-2.693-.328 19 19 0 0 1-11.253 3.1 2.125 2.125 0 0 0-2.338 1.361c-.029 0-.358.071-.376.076v-2.04a10.137 10.137 0 0 1 7.163-9.644 1.329 1.329 0 1 0-.767-2.546 12.832 12.832 0 0 0-6.491 4.528 12.616 12.616 0 0 0-2.564 7.662v3.681a4.332 4.332 0 0 0-1.032 2.8 4.59 4.59 0 0 0 4.066 4.557 9.82 9.82 0 0 0 3.7 6.184v2.265L5.511 69.024l-.025.01A9.268 9.268 0 0 0 0 77.493v20.848a2.886 2.886 0 0 0 2.883 2.883h40.939a2.864 2.864 0 0 0 1.554-.458 2.863 2.863 0 0 0 1.554.458h40.939a2.886 2.886 0 0 0 2.883-2.883v-8.882a1.33 1.33 0 0 0-1.33-1.33zm-76-34.854a1.919 1.919 0 0 1-1.277-1.81 1.963 1.963 0 0 1 1.277-1.73zm61.444 14.582l-2.609 5.23L69.317 71l3.263-4.027zm-7.466 1.29L63.957 64.9v-1.273a10.721 10.721 0 0 0 3.455.565 9.828 9.828 0 0 0 3.414-.62v1.339zM68.956 74l-.489.736h-2.143L65.835 74l1.565-1.1zM45.372 53.12l-3.438-4.244V47.6a10.72 10.72 0 0 0 3.455.565 9.827 9.827 0 0 0 3.414-.62v1.338zm1.561 4.857l-.489.736H44.3l-.489-.736 1.561-1.108zM34.9 39.867a4.755 4.755 0 0 0 .667.127 9.82 9.82 0 0 0 3.7 6.184v2.265L36.563 49.5a4.557 4.557 0 0 0-.587-.926v-3.592a12.7 12.7 0 0 0-1.076-5.115zm17.533-1.408a7.169 7.169 0 0 1-14.336 0v-6.227a21.77 21.77 0 0 0 12.124-3.3c1.2 1.285 1.912 2.032 2.212 2.379.003 3.315.003 4.589.003 7.148zm2.537 1.534a4.782 4.782 0 0 0 .664-.128 12.654 12.654 0 0 0-1.077 5.116v3.681a4.536 4.536 0 0 0-.526.777l-2.572-1v-2.416a9.709 9.709 0 0 0 3.514-6.029zM40.183 50.946l3.264 4.028-2.226 1.581-.706.5L37.9 51.83zm8.249 2.62l2.125-2.623 2.286.885-2.609 5.23-.708-.5-2.23-1.584zm.67 5.95l.142.1a2.081 2.081 0 0 0 3.067-.767l2.244-4.5a4.667 4.667 0 0 0 3.034 1.671 9.664 9.664 0 0 0 3.71 6.181v2.265L50 68.853l-1.445-8.513zm13.1 7.456L65.47 71l-2.935 2.085-2.61-5.23zm12.257-12.485a7.169 7.169 0 0 1-14.336 0V48.26a21.78 21.78 0 0 0 12.124-3.3c1.2 1.285 1.912 2.032 2.212 2.379v7.148zm3.941-3.022a1.919 1.919 0 0 1-1.277 1.81v-3.616a1.916 1.916 0 0 1 1.277 1.806zm-21.181-6.483a10.072 10.072 0 1 1 20.144 0v1.988c-.06-.013-.227-.041-.249-.045a1.532 1.532 0 0 0-.318-.9c-.349-.5-.954-1.1-2.917-3.211a2.1 2.1 0 0 0-2.693-.328 19.032 19.032 0 0 1-11.352 3.094 2.091 2.091 0 0 0-2.234 1.366c-.03 0-.358.071-.376.076v-2.04zm.245 4.753v3.538a1.915 1.915 0 0 1-1.277-1.808 1.962 1.962 0 0 1 1.277-1.73zm-1.092-14.3a1.913 1.913 0 0 1-.665 1.452 1.967 1.967 0 0 1-.613.358v-3.614a1.917 1.917 0 0 1 1.279 1.807zm-11.1-16.555A10.084 10.084 0 0 1 55.34 28.955v1.988c-.06-.012-.227-.041-.249-.045a1.611 1.611 0 0 0-.376-.981c-.356-.482-1.012-1.144-2.858-3.129a2.1 2.1 0 0 0-2.693-.328A18.989 18.989 0 0 1 37.7 29.548a2.113 2.113 0 0 0-2.132 1.371c-.03 0-.358.071-.376.076v-2.04a10.084 10.084 0 0 1 10.076-10.072zm-9.831 14.828v3.54a1.919 1.919 0 0 1-1.277-1.81 1.964 1.964 0 0 1 1.277-1.73zm-2.369 15.951a1.92 1.92 0 0 1 0 3.615zm-.123 6.367a4.662 4.662 0 0 0 3.159-1.834l2.325 4.66a2.081 2.081 0 0 0 3.067.767l.142-.1.546.823-1.44 8.511-11.308-4.382v-2.42a9.717 9.717 0 0 0 3.509-6.026zm-9.6 13.122L19.911 64.9v-1.273a10.716 10.716 0 0 0 3.455.565 9.823 9.823 0 0 0 3.414-.62v1.339zM24.91 74l-.489.736h-2.143L21.789 74l1.56-1.1zm3.623-7.033l2.287.886-2.609 5.23-.708-.5L25.271 71zm-12.456-12.48V48.26a21.789 21.789 0 0 0 12.124-3.3c1.187 1.273 1.912 2.032 2.212 2.379v7.143a7.169 7.169 0 0 1-14.336 0zm2.083 12.486L21.423 71 19.2 72.582l-.706.5-2.61-5.23zm-7.567 31.592V79.143a1.329 1.329 0 1 0-2.659 0v19.422H2.883a.224.224 0 0 1-.224-.224V77.493a6.617 6.617 0 0 1 3.831-6l6.9-2.674 3.022 6.057a2.081 2.081 0 0 0 3.067.767l.142-.1.546.823L17.2 93.914c0 .013 0 .026-.006.04a2.128 2.128 0 0 0 .515 1.706l2.642 2.906h-9.758zm9.272-4.484L22.688 77.4h1.322l2.824 16.683-3.485 3.833zm24.181 4.26a.224.224 0 0 1-.224.224h-5.051V79.143a1.329 1.329 0 1 0-2.659 0v19.422h-9.76l2.642-2.906a2.126 2.126 0 0 0 .515-1.706c0-.013 0-.026-.006-.04l-2.97-17.547.546-.823.142.1a2.081 2.081 0 0 0 3.067-.767l3.022-6.057 6.9 2.673a6.6 6.6 0 0 1 3.833 6v20.849zm1.33-25.679a9.465 9.465 0 0 0-2.168-2.409l1.5-8.882h1.322l1.5 8.886a9.472 9.472 0 0 0-2.154 2.406zm9.263 25.9V79.143a1.329 1.329 0 1 0-2.659 0v19.422h-5.051a.224.224 0 0 1-.224-.224V77.493a6.354 6.354 0 0 1 1.551-4.259 7.156 7.156 0 0 1 2.28-1.734l6.9-2.675 3.022 6.057a2.081 2.081 0 0 0 3.067.767l.142-.1.546.823-2.97 17.547c0 .013 0 .026-.006.04a2.128 2.128 0 0 0 .515 1.706l2.642 2.906h-9.755zm9.272-4.484L66.734 77.4h1.322l2.824 16.682-3.48 3.833z" class="cls-1" data-name="Path 243" transform="translate(0 -16.224)"/>
        </g>
    </g>
</svg>
