<svg xmlns="http://www.w3.org/2000/svg" width="31.184" height="31.184" viewBox="0 0 31.184 31.184">
  <g id="Group_509" data-name="Group 509" transform="translate(-1161.643 -9.052)">
    <g id="Ellipse_48" data-name="Ellipse 48" transform="translate(1161.643 9.052)" fill="none" stroke="#324374" stroke-width="1">
      <circle cx="15.592" cy="15.592" r="15.592" stroke="none"/>
      <circle cx="15.592" cy="15.592" r="15.092" fill="none"/>
    </g>
    <g id="linkedin-logo" transform="translate(1170.224 17.823)">
      <path id="LinkedIn" d="M14.5,17.776v5.186H11.391V18.124c0-1.216-.449-2.045-1.574-2.045a1.7,1.7,0,0,0-1.594,1.1,2,2,0,0,0-.1.733v5.051H5.011s.042-8.2,0-9.045H8.119V15.2l-.02.029h.02V15.2a3.1,3.1,0,0,1,2.8-1.495C12.965,13.705,14.5,15,14.5,17.776ZM1.759,9.558a1.572,1.572,0,1,0-.041,3.126h.021a1.573,1.573,0,1,0,.02-3.126ZM.185,22.962H3.292V13.918H.185Z" transform="translate(0 -9.558)" fill="#324374"/>
    </g>
  </g>
</svg>
