<svg xmlns="http://www.w3.org/2000/svg" width="88.77" height="84" viewBox="0 0 88.77 84">
    <defs>
        <style>
            .cls-1{fill:#eabd00}
        </style>
    </defs>
    <g id="promotion">
        <path id="Path_227" d="M124.564 292.811a1.734 1.734 0 1 0-2.368-.635 1.735 1.735 0 0 0 2.368.635zm0 0" class="cls-1" data-name="Path 227" transform="translate(-100.818 -239.369)"/>
        <path id="Path_228" d="M16.642 83.887l8.731 15.124a6.935 6.935 0 1 0 12.012-6.934l-5.2-9.01 4.5-2.6a1.734 1.734 0 0 0 .635-2.368l-2.255-3.905 33.209-6.514a5.2 5.2 0 0 0 4.216-7.793l-5.762-9.98 3.682-5.577a1.734 1.734 0 0 0 .055-1.823L67 36.5a1.737 1.737 0 0 0-1.606-.864l-6.67.4-6.4-11.08a5.156 5.156 0 0 0-4.439-2.6h-.066a5.156 5.156 0 0 0-4.379 2.4l-22.647 28.85-14.724 8.5a12.136 12.136 0 0 0 10.573 21.78zm17.741 9.924a3.468 3.468 0 0 1-6.007 3.467l-8.669-15.017 6.006-3.468zM30.45 80.063l-1.734-3 3-1.734 1.734 3zm34.083-40.9l2.4 4.15-2.137 3.236-4.13-7.154zM46.342 26.655a1.733 1.733 0 0 1 2.981.035L69.49 61.619a1.733 1.733 0 0 1-1.459 2.6 6.364 6.364 0 0 0-.951.161L45.748 27.432c.452-.576.506-.632.594-.777zm-2.9 3.716l20.041 34.714-30.248 5.933-9.2-15.93zM4.63 76.952A8.663 8.663 0 0 1 7.8 65.11l13.513-7.8 8.669 15.015-13.513 7.8A8.68 8.68 0 0 1 4.63 76.952zm0 0" class="cls-1" data-name="Path 228" transform="translate(0 -18.48)"/>
        <path id="Path_229" d="M53.657 310.44a1.734 1.734 0 0 0-2.368-.635l-3 1.734a1.736 1.736 0 0 1-2.368-.635 1.734 1.734 0 1 0-3 1.734 5.208 5.208 0 0 0 7.105 1.9l3-1.734a1.734 1.734 0 0 0 .631-2.364zm0 0" class="cls-1" data-name="Path 229" transform="translate(-35.282 -255.9)"/>
        <path id="Path_230" d="M446.827 42.7l-9.661 5.376a1.734 1.734 0 0 0 1.686 3.03l9.66-5.376a1.734 1.734 0 0 0-1.686-3.03zm0 0" class="cls-1" data-name="Path 230" transform="translate(-360.634 -35.116)"/>
        <path id="Path_231" d="M448.945 138.476l-6.7-1.795a1.734 1.734 0 1 0-.9 3.349l6.7 1.795a1.734 1.734 0 1 0 .9-3.349zm0 0" class="cls-1" data-name="Path 231" transform="translate(-363.766 -112.934)"/>
        <path id="Path_232" d="M385.349 1.286l-1.8 6.7a1.734 1.734 0 1 0 3.35.9l1.8-6.7a1.734 1.734 0 1 0-3.349-.9zm0 0" class="cls-1" data-name="Path 232" transform="translate(-317.003)"/>
    </g>
</svg>
