<svg xmlns="http://www.w3.org/2000/svg" width="31.184" height="31.184" viewBox="0 0 31.184 31.184">
  <g id="Group_276" data-name="Group 276" transform="translate(0)">
    <path id="Path_11" data-name="Path 11" d="M42.32,13.066a7.888,7.888,0,0,0,7.958-7.958V4.729a6.161,6.161,0,0,0,1.364-1.44,6.292,6.292,0,0,1-1.592.455,2.949,2.949,0,0,0,1.213-1.516,6.952,6.952,0,0,1-1.743.682A2.707,2.707,0,0,0,47.474,2a2.848,2.848,0,0,0-2.8,2.8,1.478,1.478,0,0,0,.076.606,7.836,7.836,0,0,1-5.76-2.956,2.9,2.9,0,0,0-.379,1.44,3.011,3.011,0,0,0,1.213,2.35,2.555,2.555,0,0,1-1.288-.379h0A2.77,2.77,0,0,0,40.8,8.594a2.337,2.337,0,0,1-.758.076,1.29,1.29,0,0,1-.531-.076,2.871,2.871,0,0,0,2.653,1.971,5.723,5.723,0,0,1-3.487,1.213A2.1,2.1,0,0,1,38,11.7a7.154,7.154,0,0,0,4.32,1.364" transform="translate(-29.23 7.745)" fill="#324374" fill-rule="evenodd"/>
    <g id="Ellipse_15" data-name="Ellipse 15" transform="translate(0)" fill="none" stroke="#324374" stroke-width="1">
      <circle cx="15.592" cy="15.592" r="15.592" stroke="none"/>
      <circle cx="15.592" cy="15.592" r="15.092" fill="none"/>
    </g>
  </g>
</svg>
