<svg xmlns="http://www.w3.org/2000/svg" width="5.935" height="16.679" viewBox="0 0 5.935 16.679">
  <g id="Group_274" data-name="Group 274" transform="translate(-55 -5191.6)">
    <path id="path1943" d="M3.722,0C2.938.088.085,1.391,0,8.114-.086,15.2,2.938,16.685,3.73,16.669V11.992c-.653,0-.784-.711-.933-2.177a16.694,16.694,0,0,1,0-3.365c.089-.838.245-1.655.929-1.655Z" transform="translate(55 5191.6)" fill="#0d266c"/>
    <path id="path1945" d="M117.953,346.689a.519.519,0,0,0,.519-.522l0,0s0-3.645,0-3.648a.517.517,0,0,0-.519-.517h-1.325v4.689s1.322,0,1.323,0Z" transform="translate(-57.54 4861.588)" fill="#0d266c"/>
    <path id="path1947" d="M117.953,4.795a.519.519,0,0,0,.519-.522l0,0s0-3.751,0-3.753A.517.517,0,0,0,117.953,0h-1.325V4.795s1.322,0,1.323,0Z" transform="translate(-57.54 5191.6)" fill="#0d266c"/>
  </g>
</svg>
