<svg xmlns="http://www.w3.org/2000/svg" width="31.184" height="31.184" viewBox="0 0 31.184 31.184">
  <g id="Group_277" data-name="Group 277" transform="translate(-0.143 0.052)">
    <path id="Path_13" data-name="Path 13" d="M6.821,1.213a20.916,20.916,0,0,1,2.729.076,3.515,3.515,0,0,1,1.288.227A2.662,2.662,0,0,1,12.127,2.8a3.515,3.515,0,0,1,.227,1.288c0,.682.076.91.076,2.729a20.916,20.916,0,0,1-.076,2.729,3.515,3.515,0,0,1-.227,1.288,2.662,2.662,0,0,1-1.288,1.288,3.515,3.515,0,0,1-1.288.227c-.682,0-.91.076-2.729.076a20.916,20.916,0,0,1-2.729-.076A3.515,3.515,0,0,1,2.8,12.127a2.662,2.662,0,0,1-1.288-1.288A3.515,3.515,0,0,1,1.288,9.55c0-.682-.076-.91-.076-2.729a20.916,20.916,0,0,1,.076-2.729A3.515,3.515,0,0,1,1.516,2.8a2.722,2.722,0,0,1,.531-.758A1.281,1.281,0,0,1,2.8,1.516a3.515,3.515,0,0,1,1.288-.227,20.916,20.916,0,0,1,2.729-.076M6.821,0a22.4,22.4,0,0,0-2.8.076,4.679,4.679,0,0,0-1.667.3,2.967,2.967,0,0,0-1.213.758A2.967,2.967,0,0,0,.379,2.35a3.453,3.453,0,0,0-.3,1.667A22.4,22.4,0,0,0,0,6.821a22.4,22.4,0,0,0,.076,2.8,4.679,4.679,0,0,0,.3,1.667,2.967,2.967,0,0,0,.758,1.213,2.967,2.967,0,0,0,1.213.758,4.679,4.679,0,0,0,1.667.3,22.4,22.4,0,0,0,2.8.076,22.4,22.4,0,0,0,2.8-.076,4.679,4.679,0,0,0,1.667-.3,3.18,3.18,0,0,0,1.971-1.971,4.679,4.679,0,0,0,.3-1.667c0-.758.076-.985.076-2.8a22.4,22.4,0,0,0-.076-2.8,4.679,4.679,0,0,0-.3-1.667,2.967,2.967,0,0,0-.758-1.213A2.967,2.967,0,0,0,11.293.379a4.679,4.679,0,0,0-1.667-.3A22.4,22.4,0,0,0,6.821,0m0,3.335A3.43,3.43,0,0,0,3.335,6.821,3.487,3.487,0,1,0,6.821,3.335m0,5.76A2.233,2.233,0,0,1,4.548,6.821,2.233,2.233,0,0,1,6.821,4.548,2.233,2.233,0,0,1,9.1,6.821,2.233,2.233,0,0,1,6.821,9.1M10.46,2.35a.834.834,0,1,0,.834.834.841.841,0,0,0-.834-.834" transform="translate(9.143 8.948)" fill="#324374" fill-rule="evenodd"/>
    <g id="Ellipse_16" data-name="Ellipse 16" transform="translate(0.143 -0.052)" fill="none" stroke="#324374" stroke-width="1">
      <circle cx="15.592" cy="15.592" r="15.592" stroke="none"/>
      <circle cx="15.592" cy="15.592" r="15.092" fill="none"/>
    </g>
  </g>
</svg>
