<svg xmlns="http://www.w3.org/2000/svg" width="31.236" height="31.236" viewBox="0 0 31.236 31.236">
  <g id="Group_508" data-name="Group 508" transform="translate(-1202.572 -9)">
    <g id="Group_507" data-name="Group 507">
      <path id="Path_252" data-name="Path 252" d="M72.58,43.638H70.855l4.7,13.293,2.633-7.523-2.041-5.77h-1.82V42.371h8.059v1.267H80.5l4.7,13.293,1.69-4.831c2.218-6.189-1.817-8.117-1.817-9.5a2.5,2.5,0,0,1,2.5-2.5c.075,0,.147,0,.218.011a13.068,13.068,0,0,0-19.845,2.259H72.58v1.267Z" transform="translate(1139.362 -24.998)" fill="#324374"/>
      <path id="Path_253" data-name="Path 253" d="M36.548,155.5a13.065,13.065,0,0,0,6.941,11.545l-5.9-16.67A13.025,13.025,0,0,0,36.548,155.5Z" transform="translate(1168.574 -130.884)" fill="#324374"/>
      <path id="Path_254" data-name="Path 254" d="M317.1,131.547a9.237,9.237,0,0,1-.156,3.579h.052l-.2.565h0a12.182,12.182,0,0,1-.432,1.235l-4.5,12.6a13.074,13.074,0,0,0,5.231-17.976Z" transform="translate(912.464 -113.368)" fill="#324374"/>
      <path id="Path_255" data-name="Path 255" d="M166.075,258.726a13.129,13.129,0,0,0,7.885.056l-3.823-10.805Z" transform="translate(1048.084 -221.675)" fill="#324374"/>
    </g>
    <path id="Path_256" data-name="Path 256" d="M26.662,4.574A15.618,15.618,0,0,0,4.574,26.662,15.618,15.618,0,1,0,26.662,4.574ZM15.618,30.134A14.516,14.516,0,1,1,30.134,15.618,14.533,14.533,0,0,1,15.618,30.134Z" transform="translate(1202.572 9)" fill="#324374"/>
  </g>
</svg>
